<?xml version="1.0" encoding="UTF-8" standalone="no"?>
<svg
   xmlns:dc="http://purl.org/dc/elements/1.1/"
   xmlns:cc="http://creativecommons.org/ns#"
   xmlns:rdf="http://www.w3.org/1999/02/22-rdf-syntax-ns#"
   xmlns:svg="http://www.w3.org/2000/svg"
   xmlns="http://www.w3.org/2000/svg"
   xmlns:sodipodi="http://sodipodi.sourceforge.net/DTD/sodipodi-0.dtd"
   xmlns:inkscape="http://www.inkscape.org/namespaces/inkscape"
   height="48"
   width="48"
   version="1.1"
   id="svg10"
   sodipodi:docname="text-x-dart.svg"
   inkscape:version="0.92.3 (2405546, 2018-03-11)">
  <metadata
     id="metadata16">
    <rdf:RDF>
      <cc:Work
         rdf:about="">
        <dc:format>image/svg+xml</dc:format>
        <dc:type
           rdf:resource="http://purl.org/dc/dcmitype/StillImage" />
      </cc:Work>
    </rdf:RDF>
  </metadata>
  <defs
     id="defs14" />
  <sodipodi:namedview
     pagecolor="#ffffff"
     bordercolor="#666666"
     borderopacity="1"
     objecttolerance="10"
     gridtolerance="10"
     guidetolerance="10"
     inkscape:pageopacity="0"
     inkscape:pageshadow="2"
     inkscape:window-width="1916"
     inkscape:window-height="1060"
     id="namedview12"
     showgrid="false"
     inkscape:zoom="9.8333333"
     inkscape:cx="16.008863"
     inkscape:cy="27.36842"
     inkscape:window-x="0"
     inkscape:window-y="18"
     inkscape:window-maximized="0"
     inkscape:current-layer="svg10" />
  <g
     fill="none"
     stroke="#616161"
     stroke-linecap="round"
     id="g8">
    <path
       d="M7.504 43.64c0 .912.946 1.876 1.838 1.876h29.353c.892 0 1.838-.964 1.838-1.875m0 0V14.599l-10.948-12.1L9.342 2.5c-.946 0-1.838.912-1.838 1.876V43.64"
       stroke-width=".988"
       stroke-linejoin="round"
       id="path4" />
    <path
       d="M29.585 2.48l10.948 12.104-8.968-.036c-.927-.003-1.97-1.053-1.97-1.98z"
       stroke-linejoin="bevel"
       id="path6" />
  </g>
  <g
     id="g852"
     transform="matrix(0.34943116,0,0,0.34943116,12.004761,15.084758)">
    <path
       id="path823"
       d="m 17.582,17.424 -4.138,-4.14 0.016,29.903 0.05,1.396 c 0.02,0.66 0.145,1.4 0.345,2.17 l 32.775,11.56 8.2,-3.63 0.007,-0.012 L 17.58,17.424 Z"
       inkscape:connector-curvature="0"
       style="fill:#00c4b3" />
    <path
       id="path825"
       d="m 13.856,46.753 h 0.003 c -0.003,-0.012 -0.008,-0.026 -0.014,-0.04 0.007,0.015 0.007,0.03 0.01,0.04 z m 40.966,7.93 -8.2,3.63 -32.77,-11.56 c 0.625,2.404 2.012,5.106 3.502,6.58 l 10.69,10.637 23.788,0.03 2.98,-9.317 z"
       inkscape:connector-curvature="0"
       style="fill:#22d3c5" />
    <g
       id="g831"
       style="fill:#0075c9">
      <path
         id="path827"
         d="M 13.556,13.285 0.813,32.53 c -1.058,1.13 -0.53,3.462 1.173,5.18 l 7.356,7.416 4.624,1.63 c -0.2,-0.768 -0.326,-1.5 -0.345,-2.17 L 13.571,43.19 13.556,13.287 Z"
         inkscape:connector-curvature="0" />
      <path
         id="path829"
         d="m 46.9,13.67 c -0.77,-0.195 -1.508,-0.318 -2.173,-0.337 l -1.478,-0.054 -29.805,0.007 41.392,41.386 3.636,-8.2 -11.57,-32.8 z"
         inkscape:connector-curvature="0" />
    </g>
    <path
       id="path833"
       d="m 46.862,13.663 c 0.013,0.005 0.027,0.008 0.038,0.01 v -0.004 c -0.013,-0.003 -0.025,-0.003 -0.038,-0.008 z m 6.615,3.518 c -1.505,-1.515 -4.17,-2.9 -6.577,-3.508 l 11.57,32.797 -3.64,8.2 8.882,-2.838 0.02,-24.352 -10.256,-10.3 z"
       inkscape:connector-curvature="0"
       style="fill:#00a8e1" />
    <path
       id="path835"
       d="m 45.278,9.075 -7.4,-7.36 C 36.152,0.018 33.82,-0.512 32.7,0.544 l -19.244,12.74 29.805,-0.007 1.478,0.054 c 0.665,0.02 1.404,0.142 2.173,0.337 L 45.28,9.073 Z m -31.833,4.2"
       inkscape:connector-curvature="0"
       style="fill:#00c4b3" />
  </g>
</svg>
